<?xml version="1.0" encoding="utf-8"?>
<!-- Generator: Adobe Illustrator 23.0.3, SVG Export Plug-In . SVG Version: 6.00 Build 0)  -->
<svg version="1.1" id="Layer_1" xmlns="http://www.w3.org/2000/svg" xmlns:xlink="http://www.w3.org/1999/xlink" x="0px" y="0px"
	 viewBox="0 0 260.5 227.4" style="enable-background:new 0 0 260.5 227.4;" xml:space="preserve">
<style type="text/css">
	.Arched_x0020_Green{fill:url(#SVGID_1_);stroke:#FFFFFF;stroke-width:0.25;stroke-miterlimit:1;}
	.st0{fill:#FFFFFF;}
</style>
<linearGradient id="SVGID_1_" gradientUnits="userSpaceOnUse" x1="-168.79" y1="545.7012" x2="-168.0829" y2="544.9941">
	<stop  offset="0" style="stop-color:#20AC4B"/>
	<stop  offset="0.9831" style="stop-color:#19361A"/>
</linearGradient>
<path class="st0" d="M190.5,0c-5,12.8-26.8,68.7-32,83.5l-0.7,2c-2.9,8.2-6.1,16.9-6.1,25.8c0,7.3,2.3,14.7,8.3,22.1
	c-7.3,0-63.5,0-65.2,0c-7-7.4-9.6-14.7-9.6-22.1c0-8.1,2.9-16.1,5.9-24.5l0.7-2c5.5-15.3,29-75.6,32.6-84.8C127,0,185.2,0,190.5,0z"
	/>
<path class="st0" d="M260.5,0c-5,12.8-26.8,68.7-32.1,83.5l-0.7,2c-2.9,8.2-6.1,16.9-6.1,25.8c0,7.3,2.3,14.7,8.3,22.1
	c-7.3,0-63.5,0-65.1,0c-7.1-7.4-9.6-14.7-9.6-22.1c0-8.1,2.9-16.1,5.9-24.5l0.7-2c5.5-15.3,29-75.6,32.6-84.8C197,0,255.2,0,260.5,0
	z"/>
<g>
	<path class="st0" d="M105.2,36.1h-66C45.9,18.2,51.2,4,52.7,0c2.5,0,61.7,0,66.9,0C117.6,5.4,111.5,19.2,105.2,36.1z"/>
	<path class="st0" d="M103.7,40.1c-13.2,35.2-30.5,81.3-34.8,93.3c-2.5,0-60.9,0-66,0c5.1-14,22-59.2,34.8-93.3l0,0H103.7z"/>
</g>
<g>
	<path class="st0" d="M24.7,182.2h-4L5.2,158.1v24.1H1v-32.1h4l15.4,24.1v-24.1h4.2V182.2z"/>
	<path class="st0" d="M53.8,182.2H31.9v-32.1h21.9v4H36.1v9.8h15.5v3.7H36.1v10.8h17.7V182.2z"/>
	<path class="st0" d="M84.4,168.7c0,9.3-4.1,13.9-12.4,13.9c-8.3,0-12.4-4.6-12.4-13.9v-18.6h4.2v18.6c0,3.2,0.5,5.5,1.5,7
		c1.3,2,3.5,2.9,6.7,2.9c3.2,0,5.4-1,6.7-2.9c1-1.5,1.4-3.8,1.4-7v-18.6h4.2V168.7z"/>
	<path class="st0" d="M113.6,154.1h-10.3v28.2h-4.2v-28.2H88.8v-4h24.8V154.1z"/>
	<path class="st0" d="M142.4,182.2h-4.7l-7.2-11.8c-0.9-1.5-2.1-2.3-3.6-2.3h-4.4v14.1h-4.2v-32.1H130c3.3,0,6,0.7,7.9,2.1
		c2.2,1.6,3.2,3.9,3.2,6.9c0,2.2-0.7,4.2-2.1,5.9c-1.4,1.7-3.3,2.7-5.6,3.1c0.2,0.2,0.5,0.6,0.9,1.2L142.4,182.2z M137,159.1
		c0-3.4-2.3-5.1-7-5.1h-7.6v10.7h7.7C134.7,164.7,137,162.8,137,159.1z"/>
	<path class="st0" d="M172.9,166.2c0,4.7-0.9,8.4-2.7,10.9c-2.5,3.7-6.2,5.5-11,5.5c-4.8,0-8.4-1.8-11-5.5
		c-1.8-2.6-2.7-6.2-2.7-10.9c0-4.7,0.9-8.4,2.7-10.9c2.6-3.7,6.2-5.5,11-5.5c4.8,0,8.4,1.8,11,5.5
		C172,157.8,172.9,161.4,172.9,166.2z M168.7,166.2c0-4-0.7-6.9-2-8.8c-1.7-2.5-4.2-3.7-7.4-3.7c-3.2,0-5.7,1.2-7.4,3.7
		c-1.4,1.9-2,4.8-2,8.8c0,3.9,0.7,6.9,2,8.8c1.7,2.5,4.2,3.7,7.4,3.7c3.2,0,5.7-1.2,7.4-3.7C168,173,168.7,170.1,168.7,166.2z"/>
	<path class="st0" d="M202.4,182.2h-4L183,158.1v24.1h-4.2v-32.1h4l15.5,24.1v-24.1h4.2V182.2z"/>
	<path class="st0" d="M233.7,172.9c0,3-1.3,5.4-3.8,7.3c-2.3,1.7-5.1,2.5-8.4,2.5c-7.7,0-12.2-3.3-13.4-10l4.2-0.7
		c0.5,2.4,1.5,4.2,3,5.2c1.4,1,3.5,1.4,6.1,1.4c2.1,0,3.9-0.4,5.3-1.3c1.7-1.1,2.6-2.5,2.6-4.4c0-2.3-1.7-4-5.2-5.1
		c-3.2-0.9-6.4-1.7-9.6-2.6c-3.4-1.4-5.2-3.8-5.2-7c0-2.8,1.2-4.9,3.5-6.4c2-1.3,4.6-2,7.6-2c3.1,0,5.6,0.6,7.5,1.7
		c1.9,1.1,3.5,3,4.8,5.6l-3.9,1.7c-1-1.9-2-3.2-3.2-3.9c-1.2-0.7-2.9-1.1-5.2-1.1c-4.5,0-6.8,1.5-6.8,4.4c0,1.9,1.7,3.3,5.2,4.2
		c6,1.7,9.1,2.6,9.6,2.8C231.9,166.8,233.7,169.4,233.7,172.9z"/>
</g>
<g>
	<path class="st0" d="M18.9,197.8H4.7v9.7h12.7v3.7H4.7V226H1.3v-32.1h17.7V197.8z"/>
	<path class="st0" d="M44.8,209.9c0,4.7-0.7,8.4-2.2,10.9c-2.1,3.7-5.1,5.5-9,5.5c-3.9,0-6.9-1.8-9-5.5c-1.5-2.6-2.2-6.2-2.2-10.9
		c0-4.7,0.7-8.4,2.2-10.9c2.1-3.7,5.1-5.5,9-5.5c3.9,0,6.9,1.8,9,5.5C44.1,201.5,44.8,205.2,44.8,209.9z M41.3,209.9
		c0-4-0.6-6.9-1.7-8.8c-1.4-2.5-3.4-3.7-6.1-3.7c-2.7,0-4.7,1.2-6.1,3.7c-1.1,1.9-1.7,4.8-1.7,8.8c0,3.9,0.6,6.9,1.7,8.8
		c1.4,2.5,3.4,3.7,6.1,3.7c2.7,0,4.7-1.2,6.1-3.7C40.7,216.8,41.3,213.8,41.3,209.9z"/>
	<path class="st0" d="M69.5,226h-3.9l-6-11.8c-0.8-1.5-1.8-2.3-3-2.3H53V226h-3.4v-32.1h9.7c2.8,0,4.9,0.7,6.5,2.1
		c1.8,1.6,2.7,3.9,2.7,6.9c0,2.2-0.6,4.2-1.7,5.9c-1.2,1.7-2.7,2.7-4.6,3.1c0.2,0.2,0.4,0.6,0.8,1.2L69.5,226z M65,202.9
		c0-3.4-1.9-5.1-5.8-5.1H53v10.7h6.4C63.2,208.4,65,206.6,65,202.9z"/>
	<path class="st0" d="M104.7,216.6c0,3-1,5.4-3.1,7.3c-1.9,1.7-4.2,2.5-6.9,2.5c-6.3,0-10-3.3-11-10l3.5-0.7
		c0.4,2.4,1.2,4.2,2.5,5.2c1.2,1,2.9,1.4,5.1,1.4c1.7,0,3.2-0.4,4.4-1.3c1.4-1.1,2.1-2.5,2.1-4.4c0-2.3-1.4-4-4.3-5.1
		c-2.6-0.9-5.3-1.7-7.9-2.6c-2.8-1.4-4.3-3.8-4.3-7c0-2.8,1-4.9,2.9-6.4c1.7-1.3,3.8-2,6.2-2c2.5,0,4.6,0.6,6.2,1.7
		c1.6,1.1,2.9,3,4,5.6l-3.2,1.7c-0.8-1.9-1.7-3.2-2.7-3.9c-1-0.7-2.4-1.1-4.3-1.1c-3.7,0-5.6,1.5-5.6,4.4c0,1.9,1.4,3.3,4.3,4.2
		c4.9,1.7,7.5,2.6,7.9,2.8C103.3,210.6,104.7,213.1,104.7,216.6z"/>
	<path class="st0" d="M130.8,209.9c0,4.7-0.7,8.4-2.2,10.9c-2.1,3.7-5.1,5.5-9,5.5c-3.9,0-6.9-1.8-9-5.5c-1.5-2.6-2.2-6.2-2.2-10.9
		c0-4.7,0.7-8.4,2.2-10.9c2.1-3.7,5.1-5.5,9-5.5c3.9,0,6.9,1.8,9,5.5C130,201.5,130.8,205.2,130.8,209.9z M127.3,209.9
		c0-4-0.6-6.9-1.7-8.8c-1.4-2.5-3.4-3.7-6.1-3.7c-2.7,0-4.7,1.2-6.1,3.7c-1.1,1.9-1.7,4.8-1.7,8.8c0,3.9,0.6,6.9,1.7,8.8
		c1.4,2.5,3.4,3.7,6.1,3.7c2.7,0,4.7-1.2,6.1-3.7C126.7,216.8,127.3,213.8,127.3,209.9z"/>
	<path class="st0" d="M154.7,199.2l-2.7,2.5c-1.1-1.5-2-2.5-2.8-3.1c-1-0.8-2.3-1.2-3.7-1.2c-5.1,0-7.7,4.2-7.7,12.5
		c0,8.3,2.6,12.5,7.7,12.5c1.4,0,2.6-0.4,3.7-1.2c0.8-0.6,1.7-1.6,2.8-3.1l2.7,2.5c-1.4,2-2.7,3.4-3.9,4.2c-1.5,1-3.2,1.6-5.2,1.6
		c-3.9,0-6.9-1.8-9-5.5c-1.5-2.6-2.2-6.3-2.2-10.9c0-4.7,0.7-8.4,2.2-10.9c2.1-3.7,5.1-5.5,9-5.5c2,0,3.7,0.5,5.2,1.6
		C151.9,195.8,153.3,197.2,154.7,199.2z"/>
	<path class="st0" d="M163.3,226h-3.6v-32.1h3.6V226z"/>
	<path class="st0" d="M187.5,226h-18.1v-32.1h18.1v4h-14.6v9.8h12.8v3.7h-12.8V222h14.6V226z"/>
	<path class="st0" d="M211.2,197.8h-8.5V226h-3.5v-28.2h-8.5v-4h20.4V197.8z"/>
	<path class="st0" d="M235.2,193.9l-9.2,21.4V226h-3.5v-10.8l-9.2-21.3h3.9l7,16.4l7-16.4H235.2z"/>
</g>
</svg>
